<svg width="32" height="32" viewBox="0 0 32 32" fill="none" xmlns="http://www.w3.org/2000/svg">
<g clip-path="url(#clip0_235_3423)">
<path d="M15.9999 31.6504C8.0749 31.6504 0.0249023 29.9504 0.0249023 26.7004C0.0249023 23.8004 6.2249 22.6004 8.8749 22.2254H8.9749C9.3499 22.2254 9.6749 22.5004 9.7249 22.8754C9.7499 23.0754 9.6999 23.2754 9.5749 23.4254C9.4499 23.5754 9.2749 23.7004 9.0749 23.7254C3.5499 24.5254 1.4999 25.9754 1.4999 26.7254C1.4999 28.1254 7.1499 30.1754 15.9749 30.1754C24.7999 30.1754 30.4499 28.1254 30.4499 26.7254C30.4499 25.9754 28.3749 24.5254 22.7999 23.7254C22.5999 23.7004 22.4249 23.6004 22.2999 23.4254C22.1749 23.2754 22.1249 23.0754 22.1499 22.8754C22.1999 22.5004 22.5249 22.2254 22.8999 22.2254H22.9999C25.6749 22.6004 31.9249 23.8004 31.9249 26.7004C31.9499 29.9254 23.9249 31.6504 15.9999 31.6504ZM15.4749 26.3504C15.0999 26.0004 6.4499 17.8254 6.4499 9.80039C6.4499 4.55039 10.7249 0.275391 15.9749 0.275391C21.2249 0.275391 25.4999 4.55039 25.4999 9.80039C25.4999 17.6004 16.8499 25.9754 16.4749 26.3254L15.9749 26.8254L15.4749 26.3504ZM15.9999 1.77539C11.5749 1.77539 7.9749 5.37539 7.9749 9.80039C7.9749 16.0754 14.0999 22.8004 15.9999 24.7254C17.9249 22.7504 24.0499 15.9004 24.0499 9.80039C24.0249 5.40039 20.4249 1.77539 15.9999 1.77539ZM15.9999 14.0504C13.4999 14.0504 11.4749 12.0254 11.4749 9.52539C11.4749 7.02539 13.4999 5.00039 15.9999 5.00039C18.4999 5.00039 20.5249 7.02539 20.5249 9.52539C20.5249 12.0254 18.4999 14.0504 15.9999 14.0504ZM15.9999 6.50039C14.3249 6.50039 12.9749 7.85039 12.9749 9.52539C12.9749 11.2004 14.3249 12.5504 15.9999 12.5504C17.6749 12.5504 19.0249 11.2004 19.0249 9.52539C19.0249 7.85039 17.6499 6.50039 15.9999 6.50039Z" fill="white"/>
</g>
<defs>
<clipPath id="clip0_235_3423">
<rect width="32" height="32" fill="white"/>
</clipPath>
</defs>
</svg>
