<svg width="30" height="40" viewBox="0 0 30 40" fill="none" xmlns="http://www.w3.org/2000/svg">
<path d="M26.25 40H3.75C2.75544 40 1.80161 39.6049 1.09835 38.9016C0.395088 38.1984 0 37.2446 0 36.25V8.75C0 7.75544 0.395088 6.80161 1.09835 6.09835C1.80161 5.39509 2.75544 5 3.75 5H5C5.33152 5 5.64946 5.1317 5.88388 5.36612C6.1183 5.60054 6.25 5.91848 6.25 6.25C6.25 6.58152 6.1183 6.89946 5.88388 7.13388C5.64946 7.3683 5.33152 7.5 5 7.5H3.75C3.41848 7.5 3.10054 7.6317 2.86612 7.86612C2.6317 8.10054 2.5 8.41848 2.5 8.75V36.25C2.5 36.5815 2.6317 36.8995 2.86612 37.1339C3.10054 37.3683 3.41848 37.5 3.75 37.5H26.25C26.5815 37.5 26.8995 37.3683 27.1339 37.1339C27.3683 36.8995 27.5 36.5815 27.5 36.25V20C27.5 19.6685 27.6317 19.3505 27.8661 19.1161C28.1005 18.8817 28.4185 18.75 28.75 18.75C29.0815 18.75 29.3995 18.8817 29.6339 19.1161C29.8683 19.3505 30 19.6685 30 20V36.25C30 37.2446 29.6049 38.1984 28.9017 38.9016C28.1984 39.6049 27.2446 40 26.25 40Z" fill="#1F4392"/>
<path d="M28.75 16.25C28.4185 16.25 28.1005 16.1183 27.8661 15.8839C27.6317 15.6495 27.5 15.3315 27.5 15V8.75C27.5 8.41848 27.3683 8.10054 27.1339 7.86612C26.8995 7.6317 26.5815 7.5 26.25 7.5H20C19.6685 7.5 19.3505 7.3683 19.1161 7.13388C18.8817 6.89946 18.75 6.58152 18.75 6.25C18.75 5.91848 18.8817 5.60054 19.1161 5.36612C19.3505 5.1317 19.6685 5 20 5H26.25C27.2446 5 28.1984 5.39509 28.9017 6.09835C29.6049 6.80161 30 7.75544 30 8.75V15C30 15.3315 29.8683 15.6495 29.6339 15.8839C29.3995 16.1183 29.0815 16.25 28.75 16.25Z" fill="#1F4392"/>
<path d="M18.75 10H11.25C10.587 10 9.95107 9.73661 9.48223 9.26777C9.01339 8.79893 8.75 8.16304 8.75 7.5V5C8.75 4.33696 9.01339 3.70107 9.48223 3.23223C9.95107 2.76339 10.587 2.5 11.25 2.5H18.75C19.413 2.5 20.0489 2.76339 20.5178 3.23223C20.9866 3.70107 21.25 4.33696 21.25 5V7.5C21.25 8.16304 20.9866 8.79893 20.5178 9.26777C20.0489 9.73661 19.413 10 18.75 10ZM11.25 5V7.5H18.75V5H11.25Z" fill="#1F4392"/>
<path d="M15 5C14.6685 5 14.3505 4.8683 14.1161 4.63388C13.8817 4.39946 13.75 4.08152 13.75 3.75V1.25C13.75 0.918479 13.8817 0.600537 14.1161 0.366117C14.3505 0.131696 14.6685 0 15 0C15.3315 0 15.6495 0.131696 15.8839 0.366117C16.1183 0.600537 16.25 0.918479 16.25 1.25V3.75C16.25 4.08152 16.1183 4.39946 15.8839 4.63388C15.6495 4.8683 15.3315 5 15 5Z" fill="#1F4392"/>
<path d="M11.25 21.25H6.25C5.91848 21.25 5.60054 21.1183 5.36612 20.8839C5.1317 20.6495 5 20.3315 5 20V15C5 14.6685 5.1317 14.3505 5.36612 14.1161C5.60054 13.8817 5.91848 13.75 6.25 13.75H11.25C11.5815 13.75 11.8995 13.8817 12.1339 14.1161C12.3683 14.3505 12.5 14.6685 12.5 15V20C12.5 20.3315 12.3683 20.6495 12.1339 20.8839C11.8995 21.1183 11.5815 21.25 11.25 21.25ZM7.5 18.75H10V16.25H7.5V18.75Z" fill="#1F4392"/>
<path d="M11.25 32.5H6.25C5.91848 32.5 5.60054 32.3683 5.36612 32.1339C5.1317 31.8995 5 31.5815 5 31.25V26.25C5 25.9185 5.1317 25.6005 5.36612 25.3661C5.60054 25.1317 5.91848 25 6.25 25H11.25C11.5815 25 11.8995 25.1317 12.1339 25.3661C12.3683 25.6005 12.5 25.9185 12.5 26.25V31.25C12.5 31.5815 12.3683 31.8995 12.1339 32.1339C11.8995 32.3683 11.5815 32.5 11.25 32.5ZM7.5 30H10V27.5H7.5V30Z" fill="#1F4392"/>
<path d="M23.75 18.75H16.25C15.9185 18.75 15.6005 18.6183 15.3661 18.3839C15.1317 18.1495 15 17.8315 15 17.5C15 17.1685 15.1317 16.8505 15.3661 16.6161C15.6005 16.3817 15.9185 16.25 16.25 16.25H23.75C24.0815 16.25 24.3995 16.3817 24.6339 16.6161C24.8683 16.8505 25 17.1685 25 17.5C25 17.8315 24.8683 18.1495 24.6339 18.3839C24.3995 18.6183 24.0815 18.75 23.75 18.75Z" fill="#F26F26"/>
<path d="M23.75 30H16.25C15.9185 30 15.6005 29.8683 15.3661 29.6339C15.1317 29.3995 15 29.0815 15 28.75C15 28.4185 15.1317 28.1005 15.3661 27.8661C15.6005 27.6317 15.9185 27.5 16.25 27.5H23.75C24.0815 27.5 24.3995 27.6317 24.6339 27.8661C24.8683 28.1005 25 28.4185 25 28.75C25 29.0815 24.8683 29.3995 24.6339 29.6339C24.3995 29.8683 24.0815 30 23.75 30Z" fill="#F26F26"/>
</svg>
