<svg id="Layer_1" data-name="Layer 1" xmlns="http://www.w3.org/2000/svg" viewBox="0 0 24 24"><defs><style>.cls-1{fill:#fff;}</style></defs><path class="cls-1" d="M4.09,23.94a6.73,6.73,0,0,1-2-.31l-.12-.05A3.22,3.22,0,0,1,.45,22.12L.39,22A7.17,7.17,0,0,1,.1,19V7.32A6.92,6.92,0,0,1,.43,4.46s0-.09,0-.13A3.43,3.43,0,0,1,1.94,2.87l.14-.05A7,7,0,0,1,5,2.52V1A.89.89,0,1,1,6.77,1V2.52H17.24V1A.89.89,0,1,1,19,1V2.52h.09a6.73,6.73,0,0,1,2.85.3l.13.05a3.38,3.38,0,0,1,1.46,1.46l.06.14a7.19,7.19,0,0,1,.29,3v.79a.28.28,0,0,1,0,.09.31.31,0,0,1,0,.1V19.14a7.05,7.05,0,0,1-.3,2.74l-.06.14a3.22,3.22,0,0,1-1.48,1.46,6.8,6.8,0,0,1-3.09.4H5A8.46,8.46,0,0,1,4.09,23.94ZM2.65,22a5.1,5.1,0,0,0,2.13.16h14.3a5.19,5.19,0,0,0,2.31-.26,1.51,1.51,0,0,0,.55-.57,5.31,5.31,0,0,0,.2-2.06v-10H1.86v10a5.68,5.68,0,0,0,.2,2.24A1.43,1.43,0,0,0,2.65,22ZM1.86,7.42H22.14v-.1a5.68,5.68,0,0,0-.2-2.24,1.57,1.57,0,0,0-.6-.6,5.47,5.47,0,0,0-2.13-.2H4.94a5.54,5.54,0,0,0-2.25.19,1.6,1.6,0,0,0-.6.61,5.38,5.38,0,0,0-.23,2.15ZM19.39,19H17a.89.89,0,1,1,0-1.77h2.44a.89.89,0,1,1,0,1.77Zm-6.16,0H10.77a.89.89,0,0,1,0-1.77h2.46a.89.89,0,0,1,0,1.77ZM7.1,19H4.65a.89.89,0,0,1,0-1.77H7.1A.89.89,0,0,1,7.1,19Zm12.29-4.86H16.9a.89.89,0,0,1,0-1.78h2.49a.89.89,0,1,1,0,1.78Zm-6.16,0H10.77a.89.89,0,0,1,0-1.78h2.46a.89.89,0,0,1,0,1.78Zm-6.13,0H4.65a.89.89,0,0,1,0-1.78H7.1a.89.89,0,0,1,0,1.78Z"/></svg>