<svg id="Layer_1" data-name="Layer 1" xmlns="http://www.w3.org/2000/svg" viewBox="0 0 24 24"><defs><style>.cls-1{fill:#fff;}</style></defs><path class="cls-1" d="M15.8,13.57a.62.62,0,0,0-.87,0l-.75.76a.62.62,0,0,1-.81.05,14.58,14.58,0,0,1-1.9-1.65,13.85,13.85,0,0,1-1.64-1.9A.61.61,0,0,1,9.88,10l.75-.75a.62.62,0,0,0,0-.87L9,6.74a.62.62,0,0,0-.87,0l-1,1C6,8.8,7.44,12,9.8,14.4s5.6,3.76,6.66,2.7l1-1a.62.62,0,0,0,0-.87Z"/><path class="cls-1" d="M12,0A12,12,0,1,0,24,12,12,12,0,0,0,12,0Zm0,22.12A10.12,10.12,0,1,1,22.12,12,10.13,10.13,0,0,1,12,22.12Z"/></svg>