<svg width="60" height="60" viewBox="0 0 60 60" fill="none" xmlns="http://www.w3.org/2000/svg">
<g clip-path="url(#clip0_277_521)">
<path d="M59.5909 39.9545C56.7273 37.0909 52.3636 36.5454 48.9545 38.4545L43.2272 41.1818C41.7272 41.8636 39.9545 42.2727 38.1817 42.4091C38.9999 41.3182 39.5453 39.8182 39.5453 38.3182C39.5453 36.8182 38.318 35.5909 36.818 35.5909H22.6364C19.0909 35.5909 15.6819 37.0909 13.3637 39.8182L8.59101 45.2727C7.90922 44.1818 6.68191 43.6363 5.45461 43.6363H1.36359C0.545508 43.6364 0 44.1818 0 45C0 45.8182 0.545508 46.3636 1.36359 46.3636H5.45449C6.2727 46.3636 6.81809 46.9091 6.81809 47.7272V55.909C6.81809 56.7272 6.27258 57.2726 5.45449 57.2726H1.36359C0.545508 57.2727 0 57.8182 0 58.6364C0 59.4546 0.545508 60 1.36359 60H5.45449C7.22719 60 8.72719 58.9091 9.2727 57.2727H16.7727C17.4545 57.2727 18.1363 57.2727 18.6818 57.1363L37.9091 54.9545C41.0455 54.5454 44.0455 53.4545 46.6364 51.5454L59.4545 42C59.7272 41.7273 60 41.4545 60 41.0455C60 40.6365 59.8636 40.2273 59.5909 39.9545ZM45 49.3636C42.8182 51 40.3636 51.9545 37.6364 52.2272L18.4091 54.409C17.8636 54.409 17.3182 54.5454 16.7727 54.5454H9.54551V48.2727L15.5455 41.4545C17.3182 39.409 19.9091 38.1818 22.7728 38.1818H36.8183C36.8183 40.5 35.0456 42.2727 32.7274 42.2727H31.3638H24.5456C23.7274 42.2727 23.182 42.8182 23.182 43.6363C23.182 44.4545 23.7275 44.9999 24.5456 44.9999H31.3638H32.7274H37.7729C40.0911 44.9999 42.2729 44.4544 44.3184 43.4999L50.182 40.7726C52.0911 39.6817 54.5456 39.6817 56.4547 40.909L45 49.3636Z" fill="#1F4392"/>
<path d="M28.6364 16.3636C24.1364 16.3636 20.4546 20.0454 20.4546 24.5454C20.4546 29.0454 24.1364 32.7272 28.6364 32.7272C33.1364 32.7272 36.8182 29.0454 36.8182 24.5454C36.8182 20.0455 33.1364 16.3636 28.6364 16.3636ZM28.6364 30C25.6364 30 23.1819 27.5455 23.1819 24.5455C23.1819 21.5455 25.6364 19.091 28.6364 19.091C31.6364 19.091 34.0909 21.5455 34.0909 24.5455C34.0909 27.5455 31.6364 30 28.6364 30Z" fill="#F26F26"/>
<path d="M46.3636 10.9091C42.5454 10.9091 39.5454 13.9091 39.5454 17.7273C39.5454 21.5455 42.5454 24.5455 46.3636 24.5455C50.1818 24.5455 53.1818 21.5455 53.1818 17.7273C53.1818 13.9091 50.1818 10.9091 46.3636 10.9091ZM46.3636 21.8182C44.0454 21.8182 42.2727 20.0455 42.2727 17.7273C42.2727 15.4091 44.0454 13.6364 46.3636 13.6364C48.6818 13.6364 50.4545 15.4091 50.4545 17.7273C50.4545 20.0455 48.6818 21.8182 46.3636 21.8182Z" fill="#F26F26"/>
<path d="M32.7274 0C29.7274 0 27.2729 2.45449 27.2729 5.45449C27.2729 8.45449 29.7274 10.909 32.7274 10.909C35.7274 10.909 38.1819 8.45449 38.1819 5.45449C38.1819 2.45449 35.7274 0 32.7274 0ZM32.7274 8.1818C31.2274 8.1818 30.0001 6.95449 30.0001 5.45449C30.0001 3.95449 31.2274 2.72719 32.7274 2.72719C34.2274 2.72719 35.4547 3.95449 35.4547 5.45449C35.4547 6.95449 34.2274 8.1818 32.7274 8.1818Z" fill="#F26F26"/>
</g>
<defs>
<clipPath id="clip0_277_521">
<rect width="60" height="60" fill="white"/>
</clipPath>
</defs>
</svg>
