<svg width="40" height="40" viewBox="0 0 40 40" fill="none" xmlns="http://www.w3.org/2000/svg">
<path d="M12.125 29.25C14.125 31.25 17 32.5 20 32.5C23 32.5 25.875 31.25 27.875 29.25" stroke="#1F4392" stroke-width="3" stroke-miterlimit="10"/>
<path d="M16.375 10.625C11.875 12.125 8.75 16.375 8.75 21.25C8.75 21.75 8.75 22.25 8.875 22.75" stroke="#1F4392" stroke-width="3" stroke-miterlimit="10"/>
<path d="M31.125 22.75C31.125 22.25 31.25 21.75 31.25 21.25C31.25 16.375 28.125 12.125 23.625 10.625" stroke="#1F4392" stroke-width="3" stroke-miterlimit="10"/>
<path d="M20 13.75C22.0711 13.75 23.75 12.0711 23.75 10C23.75 7.92893 22.0711 6.25 20 6.25C17.9289 6.25 16.25 7.92893 16.25 10C16.25 12.0711 17.9289 13.75 20 13.75Z" stroke="#F26F26" stroke-width="3" stroke-miterlimit="10"/>
<path d="M10 30C12.0711 30 13.75 28.3211 13.75 26.25C13.75 24.1789 12.0711 22.5 10 22.5C7.92893 22.5 6.25 24.1789 6.25 26.25C6.25 28.3211 7.92893 30 10 30Z" stroke="#F26F26" stroke-width="3" stroke-miterlimit="10"/>
<path d="M30 30C32.0711 30 33.75 28.3211 33.75 26.25C33.75 24.1789 32.0711 22.5 30 22.5C27.9289 22.5 26.25 24.1789 26.25 26.25C26.25 28.3211 27.9289 30 30 30Z" stroke="#F26F26" stroke-width="3" stroke-miterlimit="10"/>
</svg>
