<svg width="60" height="60" viewBox="0 0 60 60" fill="none" xmlns="http://www.w3.org/2000/svg">
<path d="M6.92969 18.9019V48.5425C6.92969 49.9046 8.2415 50.7913 9.60359 50.7913H11.8491V16.2352H9.60359C8.24156 16.2352 6.92969 17.5398 6.92969 18.9019ZM10.2293 49.2315H9.60359C9.14968 49.2315 8.6095 48.9966 8.6095 48.5425V18.9019C8.6095 18.4478 9.14968 17.915 9.60359 17.915H10.2293V49.2315ZM44.1843 10.8958H37.2863V12.4556H44.1843C44.6382 12.4556 44.8454 13.096 44.8454 13.5501V46.4842C44.8454 46.9383 44.6382 47.0717 44.1843 47.0717H16.1904C15.7365 47.0717 15.0888 46.9382 15.0888 46.4842V13.5501C15.0888 13.0961 15.7366 12.4557 16.1904 12.4557H22.648V10.8959H16.1904C14.8283 10.8959 13.469 12.1881 13.469 13.5501V53.8944C13.469 55.2565 14.8284 56.2508 16.1904 56.2508H44.1844C45.5465 56.2508 46.4653 55.2565 46.4653 53.8944V13.5501C46.4653 12.1881 45.5464 10.8958 44.1843 10.8958ZM44.1843 54.5709H16.1904C15.7365 54.5709 15.0888 54.3484 15.0888 53.8943V52.5152C15.5088 52.6068 15.9014 52.4711 16.1904 52.4711H44.1844C44.4734 52.4711 44.8455 52.6068 44.8455 52.5152V53.8943C44.8454 54.3484 44.6382 54.5709 44.1843 54.5709ZM44.1843 50.7913H16.1904C15.7365 50.7913 15.0888 50.6433 15.0888 50.1892V48.8101C15.5088 48.9017 15.9014 48.7516 16.1904 48.7516H44.1844C44.4734 48.7516 44.8455 48.9017 44.8455 48.8101V50.1892C44.8454 50.6433 44.6382 50.7913 44.1843 50.7913ZM50.7712 16.2352H48.0851V50.7913H50.7712C52.1332 50.7913 53.0045 49.9046 53.0045 48.5425V18.9019C53.0045 17.5398 52.1332 16.2352 50.7712 16.2352ZM51.3847 48.5425C51.3847 48.9966 51.225 49.2315 50.7712 49.2315H49.6449V17.915H50.7712C51.2251 17.915 51.3847 18.4478 51.3847 18.9019V48.5425Z" fill="#1F4392"/>
<path d="M17.6685 20.9147H30.807V22.4745H17.6685V20.9147ZM17.6685 33.5133H30.807V35.1931H17.6685V33.5133ZM17.6685 29.4937H30.807V31.2335H17.6685V29.4937ZM17.6685 25.2942H30.807V27.034H17.6685V25.2942Z" fill="#1F4392"/>
<path d="M42.4457 43.0088C42.4457 43.4635 42.0771 43.8321 41.6223 43.8321H18.4918C18.0371 43.8321 17.6685 43.4635 17.6685 43.0088V39.2561C17.6685 38.8013 18.0371 38.4327 18.4918 38.4327H41.6223C42.0771 38.4327 42.4457 38.8013 42.4457 39.2561V43.0088ZM42.4457 34.5497C42.4457 35.0045 42.0771 35.3731 41.6223 35.3731H34.1501C33.6953 35.3731 33.3267 35.0045 33.3267 34.5497V21.738C33.3267 21.2833 33.6953 20.9147 34.1501 20.9147H41.6223C42.0771 20.9147 42.4457 21.2833 42.4457 21.738V34.5497Z" fill="#1F4392" fill-opacity="0.6"/>
<path d="M37.2863 15.7553H22.6479V9.4334C22.6479 8.5254 23.5158 7.59623 24.4239 7.59623H26.7875V6.9633C26.7875 5.14736 28.2412 3.66991 30.0571 3.66991C31.8731 3.66991 33.3268 5.14736 33.3268 6.9633V7.59617H35.9509C36.859 7.59617 37.2863 8.52534 37.2863 9.43334V15.7553ZM24.2678 14.1354H35.7265V9.27598H31.6469V6.9633C31.6469 6.0553 30.9353 5.3166 30.0271 5.3166C29.1189 5.3166 28.4073 6.0553 28.4073 6.9633V9.27598H24.2678V14.1354Z" fill="#F26F26"/>
</svg>
