<svg width="32" height="32" viewBox="0 0 32 32" fill="none" xmlns="http://www.w3.org/2000/svg">
<path d="M18.6667 2.66699C18.6667 2.66699 21.6 2.93366 25.3334 6.66699C29.0667 10.4003 29.3334 13.3337 29.3334 13.3337" stroke="white" stroke-width="1.5" stroke-linecap="round"/>
<path d="M18.9427 7.38085C18.9427 7.38085 20.2627 7.75799 22.2425 9.73788C24.2224 11.7178 24.5996 13.0377 24.5996 13.0377" stroke="white" stroke-width="1.5" stroke-linecap="round"/>
<path d="M13.3834 7.0879L14.2488 8.63847C15.0297 10.0378 14.7162 11.8734 13.4862 13.1034C13.4862 13.1034 11.9945 14.5954 14.6993 17.3003C17.4033 20.0043 18.8962 18.5134 18.8962 18.5134C20.1262 17.2834 21.9618 16.9699 23.3612 17.7509L24.9117 18.6162C27.0248 19.7954 27.2742 22.7586 25.417 24.6159C24.301 25.7319 22.9338 26.6003 21.4225 26.6575C18.8784 26.7541 14.5577 26.1102 10.2236 21.7761C5.88949 17.4419 5.2456 13.1213 5.34205 10.5771C5.39934 9.06581 6.26772 7.69865 7.38373 6.58265C9.241 4.72538 12.2042 4.97493 13.3834 7.0879Z" stroke="white" stroke-width="1.5" stroke-linecap="round"/>
</svg>
