<svg width="40" height="40" viewBox="0 0 40 40" fill="none" xmlns="http://www.w3.org/2000/svg">
<g clip-path="url(#clip0_256_81)">
<path d="M33.75 12.5H26.25C25.2558 12.5011 24.3026 12.8965 23.5996 13.5996C22.8965 14.3026 22.5011 15.2558 22.5 16.25V23.75C22.5008 24.4128 22.7644 25.0483 23.2331 25.5169C23.7017 25.9856 24.3372 26.2492 25 26.25V35C25.0008 35.6628 25.2644 36.2983 25.7331 36.7669C26.2017 37.2356 26.8372 37.4992 27.5 37.5H32.5C33.1628 37.4992 33.7983 37.2356 34.2669 36.7669C34.7356 36.2983 34.9992 35.6628 35 35V26.25C35.6628 26.2492 36.2983 25.9856 36.7669 25.5169C37.2356 25.0483 37.4992 24.4128 37.5 23.75V16.25C37.4989 15.2558 37.1035 14.3026 36.4004 13.5996C35.6974 12.8965 34.7442 12.5011 33.75 12.5ZM35.6667 23.75H33.1667V35.6667H26.8333V23.75H24.3333V16.25C24.3336 15.9186 24.7656 14.901 25 14.6667C25.2344 14.4323 25.9186 14.3336 26.25 14.3333H33.75C34.0814 14.3336 35.099 14.4323 35.3333 14.6667C35.5677 14.901 35.6664 15.9186 35.6667 16.25V23.75Z" fill="#1F4392"/>
<path d="M25 6.25C25 5.2611 25.2932 4.2944 25.8427 3.47215C26.3921 2.64991 27.173 2.00904 28.0866 1.6306C29.0002 1.25217 30.0055 1.15315 30.9755 1.34608C31.9454 1.539 32.8363 2.01521 33.5355 2.71447C34.2348 3.41373 34.711 4.30465 34.9039 5.27455C35.0969 6.24446 34.9978 7.24979 34.6194 8.16342C34.241 9.07705 33.6001 9.85794 32.7779 10.4074C31.9556 10.9568 30.9889 11.25 30 11.25C28.6743 11.2486 27.4034 10.7214 26.466 9.784C25.5286 8.84662 25.0014 7.57566 25 6.25ZM27.5 6.25C27.5 6.74446 27.6466 7.2278 27.9213 7.63893C28.196 8.05005 28.5865 8.37048 29.0433 8.5597C29.5001 8.74892 30.0028 8.79843 30.4877 8.70197C30.9727 8.6055 31.4181 8.3674 31.7678 8.01777C32.1174 7.66814 32.3555 7.22268 32.452 6.73773C32.5484 6.25278 32.4989 5.75011 32.3097 5.29329C32.1205 4.83648 31.8 4.44603 31.3889 4.17133C30.9778 3.89662 30.4945 3.75 30 3.75C29.3372 3.75076 28.7017 4.0144 28.2331 4.48308C27.7644 4.95175 27.5008 5.58719 27.5 6.25Z" fill="#1F4392"/>
<path d="M17.5 20.6667V16.25C17.4989 15.2558 17.1035 14.3026 16.4004 13.5996C15.6974 12.8965 14.7442 12.5011 13.75 12.5H6.25C5.25577 12.5011 4.30258 12.8965 3.59956 13.5996C2.89653 14.3026 2.50109 15.2558 2.5 16.25V20.6667H0V22.5H20V20.6667H17.5ZM4.33333 16.25C4.33363 15.9186 4.52598 15.1407 5 14.6667C5.33333 14.3333 5.91857 14.3336 6.25 14.3333H13.75C14.0814 14.3336 14.8958 14.2291 15.3333 14.6667C15.6667 15 15.6664 15.9186 15.6667 16.25V20.6667H4.33333V16.25Z" fill="#F26F26"/>
<path d="M5 6.25C5 5.2611 5.29324 4.2944 5.84265 3.47215C6.39206 2.64991 7.17295 2.00904 8.08658 1.6306C9.00021 1.25217 10.0055 1.15315 10.9755 1.34608C11.9454 1.539 12.8363 2.01521 13.5355 2.71447C14.2348 3.41373 14.711 4.30465 14.9039 5.27455C15.0969 6.24446 14.9978 7.24979 14.6194 8.16342C14.241 9.07705 13.6001 9.85794 12.7779 10.4074C11.9556 10.9568 10.9889 11.25 10 11.25C8.67434 11.2486 7.40338 10.7214 6.466 9.784C5.52862 8.84662 5.00139 7.57566 5 6.25ZM7.5 6.25C7.5 6.74446 7.64662 7.2278 7.92133 7.63893C8.19603 8.05005 8.58648 8.37048 9.04329 8.5597C9.50011 8.74892 10.0028 8.79843 10.4877 8.70197C10.9727 8.6055 11.4181 8.3674 11.7678 8.01777C12.1174 7.66814 12.3555 7.22268 12.452 6.73773C12.5484 6.25278 12.4989 5.75011 12.3097 5.29329C12.1205 4.83648 11.8 4.44603 11.3889 4.17133C10.9778 3.89662 10.4945 3.75 10 3.75C9.33719 3.75076 8.70175 4.0144 8.23307 4.48308C7.7644 4.95175 7.50076 5.58719 7.5 6.25Z" fill="#F26F26"/>
</g>
<defs>
<clipPath id="clip0_256_81">
<rect width="40" height="40" fill="white"/>
</clipPath>
</defs>
</svg>
