<svg width="60" height="60" viewBox="0 0 60 60" fill="none" xmlns="http://www.w3.org/2000/svg">
<path d="M44.9953 17.9C44.8453 17.875 44.6703 17.875 44.5203 17.9C41.0703 17.775 38.3203 14.95 38.3203 11.45C38.3203 7.875 41.1953 5 44.7703 5C48.3453 5 51.2203 7.9 51.2203 11.45C51.1953 14.95 48.4453 17.775 44.9953 17.9Z" stroke="#F26F26" stroke-width="2.5" stroke-linecap="round" stroke-linejoin="round"/>
<path d="M42.4188 36.1005C45.8438 36.6755 49.6187 36.0755 52.2687 34.3005C55.7937 31.9505 55.7937 28.1005 52.2687 25.7505C49.5937 23.9754 45.7688 23.3754 42.3438 23.9754" stroke="#F26F26" stroke-width="2.5" stroke-linecap="round" stroke-linejoin="round"/>
<path d="M14.9164 17.9C15.0664 17.875 15.2414 17.875 15.3914 17.9C18.8414 17.775 21.5914 14.95 21.5914 11.45C21.5914 7.875 18.7164 5 15.1414 5C11.5664 5 8.69141 7.9 8.69141 11.45C8.71641 14.95 11.4664 17.775 14.9164 17.9Z" stroke="#F26F26" stroke-width="2.5" stroke-linecap="round" stroke-linejoin="round"/>
<path d="M17.4937 36.1005C14.0687 36.6755 10.2937 36.0755 7.64375 34.3005C4.11875 31.9505 4.11875 28.1005 7.64375 25.7505C10.3188 23.9754 14.1438 23.3754 17.5688 23.9754" stroke="#F26F26" stroke-width="2.5" stroke-linecap="round" stroke-linejoin="round"/>
<path d="M30.0002 36.5755C29.8502 36.5505 29.6752 36.5505 29.5252 36.5755C26.0752 36.4505 23.3252 33.6255 23.3252 30.1255C23.3252 26.5505 26.2002 23.6755 29.7752 23.6755C33.3502 23.6755 36.2252 26.5755 36.2252 30.1255C36.2002 33.6255 33.4502 36.4755 30.0002 36.5755Z" stroke="#1F4392" stroke-width="2.5" stroke-linecap="round" stroke-linejoin="round"/>
<path d="M22.7268 44.451C19.2018 46.801 19.2018 50.6508 22.7268 53.0008C26.7268 55.6758 33.2768 55.6758 37.2768 53.0008C40.8018 50.6508 40.8018 46.801 37.2768 44.451C33.3018 41.801 26.7268 41.801 22.7268 44.451Z" stroke="#1F4392" stroke-width="2.5" stroke-linecap="round" stroke-linejoin="round"/>
</svg>
