<svg width="60" height="60" viewBox="0 0 60 60" fill="none" xmlns="http://www.w3.org/2000/svg">
<path d="M54.8532 53.8438H50.5782V25.4281H53.1938C53.3704 25.4291 53.5436 25.3802 53.6936 25.287C53.8436 25.1939 53.9642 25.0602 54.0416 24.9016C54.1189 24.7429 54.15 24.5656 54.131 24.39C54.1121 24.2145 54.0439 24.0479 53.9345 23.9094L48.0189 16.3344C47.9267 16.2284 47.8129 16.1435 47.6852 16.0853C47.5574 16.0271 47.4186 15.997 47.2782 15.997C47.1378 15.997 46.9991 16.0271 46.8713 16.0853C46.7435 16.1435 46.6297 16.2284 46.5376 16.3344L40.622 23.9094C40.5125 24.0479 40.4444 24.2145 40.4254 24.39C40.4065 24.5656 40.4375 24.7429 40.5149 24.9016C40.5923 25.0602 40.7129 25.1939 40.8629 25.287C41.0128 25.3802 41.1861 25.4291 41.3626 25.4281H43.9688V53.8438H34.4907V33.95H37.097C37.2738 33.9503 37.4471 33.9002 37.5966 33.8055C37.746 33.7109 37.8654 33.5757 37.9407 33.4156C38.0194 33.2589 38.0515 33.0828 38.0332 32.9084C38.0149 32.7339 37.9471 32.5683 37.8376 32.4313L31.922 24.8563C31.8298 24.7503 31.716 24.6654 31.5883 24.6072C31.4605 24.549 31.3217 24.5189 31.1813 24.5189C31.0409 24.5189 30.9022 24.549 30.7744 24.6072C30.6467 24.6654 30.5329 24.7503 30.4407 24.8563L24.5251 32.4313C24.4179 32.5704 24.3517 32.7367 24.3339 32.9114C24.3161 33.0862 24.3475 33.2624 24.4245 33.4203C24.5015 33.5782 24.621 33.7114 24.7696 33.805C24.9183 33.8986 25.0901 33.9488 25.2657 33.95H27.8813V53.8438H19.3407V42.4625H21.9563C22.1322 42.4635 22.3047 42.4148 22.454 42.3219C22.6033 42.229 22.7233 42.0957 22.8001 41.9375C22.8742 41.7796 22.9038 41.6044 22.8856 41.431C22.8675 41.2575 22.8022 41.0922 22.697 40.9531L16.772 33.3781C16.6821 33.2703 16.5695 33.1835 16.4423 33.1239C16.3152 33.0644 16.1765 33.0335 16.036 33.0335C15.8956 33.0335 15.7569 33.0644 15.6297 33.1239C15.5025 33.1835 15.39 33.2703 15.3001 33.3781L9.38447 40.9531C9.27501 41.0902 9.20713 41.2558 9.18885 41.4302C9.17057 41.6047 9.20267 41.7807 9.28135 41.9375C9.35514 42.096 9.47312 42.2299 9.62113 42.323C9.76913 42.4162 9.94087 42.4646 10.1157 42.4625H12.7313V53.8438H6.08447V5.55313C6.08447 5.30449 5.9857 5.06603 5.80989 4.89022C5.63407 4.7144 5.39561 4.61563 5.14697 4.61563C4.89833 4.61563 4.65988 4.7144 4.48406 4.89022C4.30824 5.06603 4.20947 5.30449 4.20947 5.55313V54.7813C4.20947 55.0299 4.30824 55.2684 4.48406 55.4442C4.65988 55.62 4.89833 55.7188 5.14697 55.7188H54.8532C55.1019 55.7188 55.3403 55.62 55.5161 55.4442C55.6919 55.2684 55.7907 55.0299 55.7907 54.7813C55.7907 54.5326 55.6919 54.2942 55.5161 54.1183C55.3403 53.9425 55.1019 53.8438 54.8532 53.8438ZM17.4657 41.525V53.8438H14.6063V41.525C14.6063 41.2764 14.5076 41.0379 14.3318 40.8621C14.1559 40.6863 13.9175 40.5875 13.6688 40.5875H12.047L16.0407 35.4781L20.0345 40.5875H18.4032C18.1546 40.5875 17.9161 40.6863 17.7403 40.8621C17.5645 41.0379 17.4657 41.2764 17.4657 41.525ZM32.6157 33.0125V53.8438H29.7563V33.0125C29.7563 32.7639 29.6576 32.5254 29.4818 32.3496C29.3059 32.1738 29.0675 32.075 28.8188 32.075H27.1876L31.1813 26.9563L35.1751 32.075H33.5532C33.4298 32.0738 33.3073 32.0971 33.193 32.1438C33.0787 32.1905 32.9748 32.2595 32.8875 32.3468C32.8002 32.4341 32.7312 32.538 32.6845 32.6523C32.6379 32.7666 32.6145 32.889 32.6157 33.0125ZM48.7032 24.4906V53.8438H45.8438V24.4906C45.8451 24.3672 45.8217 24.2447 45.775 24.1304C45.7284 24.0161 45.6594 23.9122 45.5721 23.8249C45.4847 23.7376 45.3809 23.6686 45.2666 23.6219C45.1523 23.5753 45.0298 23.5519 44.9063 23.5531H43.2845L47.2782 18.4344L51.272 23.5531H49.6407C49.3921 23.5531 49.1536 23.6519 48.9778 23.8277C48.802 24.0035 48.7032 24.242 48.7032 24.4906Z" fill="#1F4392"/>
<path d="M20.8127 22.3531C20.6741 22.8303 20.4079 23.2606 20.0428 23.5976C19.6777 23.9346 19.2275 24.1656 18.7408 24.2656V24.8656C18.7408 25.1143 18.6421 25.3527 18.4662 25.5285C18.2904 25.7044 18.052 25.8031 17.8033 25.8031C17.5547 25.8031 17.3162 25.7044 17.1404 25.5285C16.9646 25.3527 16.8658 25.1143 16.8658 24.8656V24.1063C16.3976 23.9188 15.9486 23.6865 15.5252 23.4125C15.3658 23.3094 15.2065 23.2156 15.0565 23.1313C14.8389 23.0107 14.6781 22.8086 14.6096 22.5695C14.541 22.3304 14.5702 22.0738 14.6908 21.8563C14.8114 21.6387 15.0135 21.478 15.2526 21.4094C15.4917 21.3408 15.7483 21.37 15.9658 21.4906C16.1533 21.5938 16.3315 21.7063 16.519 21.8188C16.9793 22.1807 17.531 22.4079 18.1127 22.475C18.3058 22.4776 18.4951 22.4204 18.6545 22.3113C18.8139 22.2022 18.9357 22.0466 19.0033 21.8656C19.0408 21.7438 19.0502 21.5469 18.769 21.3594L16.3033 19.7094C16.0185 19.5292 15.7751 19.2906 15.5893 19.0094C15.4034 18.7282 15.2793 18.4108 15.2252 18.0781C15.1756 17.7651 15.1935 17.4451 15.2775 17.1395C15.3616 16.834 15.51 16.5499 15.7127 16.3063C16.0159 15.9326 16.4143 15.6476 16.8658 15.4813V14.6469C16.8658 14.3982 16.9646 14.1598 17.1404 13.984C17.3162 13.8082 17.5547 13.7094 17.8033 13.7094C18.052 13.7094 18.2904 13.8082 18.4662 13.984C18.6421 14.1598 18.7408 14.3982 18.7408 14.6469V15.3781C19.0557 15.451 19.3544 15.5813 19.6221 15.7625L20.6158 16.4188C20.8234 16.5568 20.9677 16.7716 21.017 17.016C21.0662 17.2603 21.0163 17.5143 20.8783 17.7219C20.7403 17.9295 20.5255 18.0738 20.2811 18.123C20.0367 18.1722 19.7828 18.1224 19.5752 17.9844L18.5815 17.3188C18.3653 17.1791 18.1077 17.1179 17.8518 17.1452C17.5959 17.1725 17.3571 17.2867 17.1752 17.4688C17.1372 17.5121 17.1085 17.5627 17.0907 17.6175C17.073 17.6723 17.0666 17.7302 17.0721 17.7875C17.1132 17.9394 17.2103 18.0701 17.344 18.1531L19.819 19.8031C20.2384 20.0633 20.562 20.4525 20.7412 20.9124C20.9204 21.3722 20.9455 21.8778 20.8127 22.3531Z" fill="#F26F26"/>
<path d="M17.8032 10.8031C16.0325 10.8031 14.3015 11.3282 12.8291 12.312C11.3568 13.2958 10.2093 14.6941 9.53162 16.33C8.85398 17.966 8.67668 19.7662 9.02213 21.5029C9.36759 23.2397 10.2203 24.835 11.4724 26.0871C12.7245 27.3392 14.3198 28.1919 16.0566 28.5373C17.7933 28.8828 19.5935 28.7055 21.2294 28.0279C22.8654 27.3502 24.2637 26.2027 25.2475 24.7303C26.2313 23.258 26.7564 21.527 26.7564 19.7563C26.7549 17.3822 25.8111 15.1058 24.1324 13.4271C22.4537 11.7484 20.1773 10.8046 17.8032 10.8031ZM17.8032 26.8344C16.4033 26.8344 15.0348 26.4193 13.8708 25.6415C12.7068 24.8637 11.7996 23.7583 11.2639 22.4649C10.7282 21.1716 10.588 19.7484 10.8611 18.3754C11.1342 17.0024 11.8083 15.7412 12.7982 14.7513C13.7881 13.7614 15.0493 13.0872 16.4224 12.8141C17.7954 12.541 19.2185 12.6812 20.5119 13.2169C21.8053 13.7526 22.9107 14.6599 23.6885 15.8239C24.4662 16.9879 24.8814 18.3563 24.8814 19.7563C24.8781 21.6325 24.1314 23.431 22.8047 24.7577C21.4779 26.0844 19.6795 26.8312 17.8032 26.8344Z" fill="#F26F26"/>
<path d="M33.9884 14.6075C34.1431 14.6938 34.3006 14.795 34.4628 14.8888C34.8844 15.1637 35.3318 15.397 35.7987 15.5853V16.3353C35.7987 16.584 35.8975 16.8224 36.0733 16.9982C36.2491 17.174 36.4876 17.2728 36.7362 17.2728C36.9848 17.2728 37.2233 17.174 37.3991 16.9982C37.5749 16.8224 37.6737 16.584 37.6737 16.3353V15.7409C38.1598 15.6406 38.6095 15.4103 38.9752 15.0747C39.3408 14.7391 39.6087 14.3107 39.7503 13.835C39.8808 13.3582 39.8538 12.8519 39.6732 12.3917C39.4926 11.9315 39.1681 11.542 38.7481 11.2813L36.2759 9.62656C36.2089 9.58767 36.1507 9.53537 36.1049 9.47294C36.0591 9.41051 36.0266 9.33929 36.0096 9.26375C36.0028 9.20691 36.0081 9.14926 36.0253 9.09463C36.0424 9.04 36.0709 8.98964 36.109 8.94688C36.2908 8.76465 36.5295 8.65026 36.7854 8.62279C37.0414 8.59532 37.299 8.65644 37.5153 8.79594L38.5024 9.45688C38.6047 9.52789 38.72 9.57783 38.8418 9.60379C38.9636 9.62974 39.0893 9.63119 39.2116 9.60804C39.3339 9.58489 39.4504 9.53762 39.5542 9.46897C39.6581 9.40032 39.7472 9.31168 39.8164 9.20822C39.8857 9.10475 39.9336 8.98854 39.9574 8.86635C39.9812 8.74417 39.9805 8.61846 39.9552 8.49656C39.93 8.37467 39.8807 8.25903 39.8102 8.15639C39.7398 8.05375 39.6496 7.96616 39.5449 7.89875L38.5578 7.2425C38.2862 7.06556 37.9867 6.93591 37.6718 6.85906V6.125C37.6718 5.87636 37.573 5.6379 37.3972 5.46209C37.2214 5.28627 36.983 5.1875 36.7343 5.1875C36.4857 5.1875 36.2472 5.28627 36.0714 5.46209C35.8956 5.6379 35.7968 5.87636 35.7968 6.125V6.96875C35.3449 7.13215 34.9453 7.4142 34.6399 7.78531C34.4398 8.03056 34.2933 8.31503 34.2098 8.62037C34.1263 8.92572 34.1077 9.24516 34.1553 9.55813C34.2112 9.88996 34.336 10.2064 34.5217 10.487C34.7074 10.7677 34.9498 11.0063 35.2334 11.1875L37.7037 12.8412C37.9849 13.0287 37.9728 13.2163 37.939 13.3466C37.8704 13.5277 37.7479 13.6834 37.5879 13.7925C37.4279 13.9017 37.2383 13.959 37.0446 13.9569C36.4633 13.8883 35.912 13.6612 35.4509 13.3006C35.2634 13.1834 35.0759 13.0691 34.8996 12.9688C34.6829 12.8518 34.4288 12.8249 34.1924 12.8938C33.956 12.9627 33.7561 13.1218 33.6361 13.3368C33.516 13.5518 33.4854 13.8054 33.5508 14.0428C33.6162 14.2803 33.7723 14.4824 33.9856 14.6056L33.9884 14.6075Z" fill="#F26F26"/>
<path d="M36.7314 2.28125C34.961 2.2831 33.2309 2.80977 31.7598 3.79468C30.2887 4.77959 29.1426 6.17852 28.4664 7.81465C27.7902 9.45079 27.6143 11.2507 27.9608 12.9868C28.3073 14.7229 29.1607 16.3173 30.4132 17.5685C31.6657 18.8197 33.261 19.6714 34.9975 20.0161C36.734 20.3608 38.5337 20.183 40.1691 19.5051C41.8045 18.8272 43.2023 17.6796 44.1856 16.2075C45.169 14.7354 45.6939 13.0047 45.6939 11.2344C45.6909 8.85915 44.7454 6.5822 43.0649 4.90354C41.3845 3.22488 39.1066 2.28174 36.7314 2.28125ZM36.7314 18.3125C35.3318 18.3106 33.9643 17.8939 32.8015 17.1151C31.6388 16.3362 30.733 15.2301 30.1987 13.9366C29.6644 12.643 29.5256 11.2202 29.7998 9.84776C30.0739 8.47536 30.7488 7.21504 31.739 6.22608C32.7293 5.23712 33.9905 4.56393 35.3633 4.29158C36.7361 4.01922 38.1588 4.15994 39.4516 4.69594C40.7444 5.23194 41.8493 6.13917 42.6266 7.30296C43.404 8.46674 43.8189 9.83485 43.8189 11.2344C43.8156 13.1122 43.0676 14.9121 41.7388 16.2391C40.4101 17.5661 38.6092 18.3118 36.7314 18.3125Z" fill="#F26F26"/>
</svg>
