<svg width="40" height="40" viewBox="0 0 40 40" fill="none" xmlns="http://www.w3.org/2000/svg">
<path d="M20.3314 0C23.8657 2.67429 29.2829 4.41143 36.5857 5.21429V21.8857C36.5857 21.8857 35.4057 25.5257 32.4429 29.6286C30.4514 32.3629 26.4029 35.3429 20.2914 38.5714C14.3486 35.36 10.3086 32.2886 8.16857 29.3657C4.96 24.9771 4 21.8657 4 21.8657V5.21429C11.5143 4.42857 16.9543 2.69143 20.3314 0ZM20.3143 36.4667C24.1657 34.0981 28.4084 31.8771 30.5713 29C32.7341 26.1257 34.0524 23.3771 34.5267 22.1543V6.90191C33.401 7.05905 23.16 4.89048 20.2943 2.46762C17.7229 4.91333 7.16476 7.01048 6.03905 6.87048V22.1543C6.69619 23.5114 7.67034 25.379 9.90462 28.3333C11.6246 30.6133 16.1257 34.2295 20.3171 36.4695L20.3143 36.4667Z" fill="#1F4392"/>
<g clip-path="url(#clip0_256_74)">
<path d="M24.9183 18.1257H21.4402L23.9698 11.3333H17.0135L15.7485 21.1823H18.5942L17.3296 29.3333L24.9183 18.1257Z" fill="#F26F26"/>
</g>
<defs>
<clipPath id="clip0_256_74">
<rect width="18" height="18" fill="white" transform="translate(11.3335 11.3333)"/>
</clipPath>
</defs>
</svg>
