<svg width="40" height="40" viewBox="0 0 40 40" fill="none" xmlns="http://www.w3.org/2000/svg">
<path d="M36.667 21.4331C36.667 25.2498 34.7003 28.6331 31.667 30.7664L29.4337 35.6831C28.917 36.7998 27.417 37.0164 26.6337 36.0664L24.167 33.0998C20.1337 33.0998 16.5337 31.3164 14.2837 28.5331L15.8337 26.6664C22.7337 26.6664 28.3337 21.4498 28.3337 14.9998C28.3337 13.2498 27.917 11.5998 27.167 10.1165C32.617 11.3665 36.667 15.9664 36.667 21.4331Z" stroke="#F26F26" stroke-width="3" stroke-linecap="round" stroke-linejoin="round"/>
<path d="M11.6665 15H19.9998" stroke="#F26F26" stroke-width="3" stroke-linecap="round" stroke-linejoin="round"/>
<path d="M28.3335 14.9999C28.3335 21.4499 22.7335 26.6666 15.8335 26.6666L14.2835 28.5333L13.3668 29.6333C12.5835 30.5666 11.0835 30.3666 10.5668 29.2499L8.3335 24.3333C5.30016 22.1999 3.3335 18.8166 3.3335 14.9999C3.3335 8.54992 8.9335 3.33325 15.8335 3.33325C20.8668 3.33325 25.2168 6.1166 27.1668 10.1166C27.9168 11.5999 28.3335 13.2499 28.3335 14.9999Z" stroke="#1F4392" stroke-width="3" stroke-linecap="round" stroke-linejoin="round"/>
</svg>
