<svg width="40" height="40" viewBox="0 0 40 40" fill="none" xmlns="http://www.w3.org/2000/svg">
<path d="M10 31.25H17.5" stroke="#1F4392" stroke-width="2" stroke-miterlimit="10" stroke-linecap="round" stroke-linejoin="round"/>
<path d="M17.5 3.75V5.375C17.5 6.55 16.55 7.5 15.375 7.5H12.125C10.95 7.5 10 6.55 10 5.375V3.75" stroke="#1F4392" stroke-width="2" stroke-miterlimit="10" stroke-linecap="round" stroke-linejoin="round"/>
<path d="M22.5 32.5V33.75C22.5 35.125 21.375 36.25 20 36.25H7.5C6.125 36.25 5 35.125 5 33.75V6.25C5 4.875 6.125 3.75 7.5 3.75H20C21.375 3.75 22.5 4.875 22.5 6.25V8.6875" stroke="#1F4392" stroke-width="3" stroke-miterlimit="10" stroke-linecap="round" stroke-linejoin="round"/>
<path d="M25.6669 28.3889C30.1158 28.3889 33.7224 24.7823 33.7224 20.3334C33.7224 15.8844 30.1158 12.2778 25.6669 12.2778C21.2179 12.2778 17.6113 15.8844 17.6113 20.3334C17.6113 24.7823 21.2179 28.3889 25.6669 28.3889Z" stroke="#F26F26" stroke-width="2"/>
<path d="M23.25 23.5557C23.935 24.0634 24.7682 24.3612 25.6667 24.3612C26.5652 24.3612 27.3983 24.0634 28.0833 23.5557" stroke="#F26F26" stroke-width="2" stroke-linecap="round"/>
<path d="M28.8889 19.1251C28.8889 19.7924 28.5283 20.3334 28.0834 20.3334C27.6385 20.3334 27.2778 19.7924 27.2778 19.1251C27.2778 18.4577 27.6385 17.9167 28.0834 17.9167C28.5283 17.9167 28.8889 18.4577 28.8889 19.1251Z" fill="#F26F26"/>
<path d="M23.2499 20.3334C23.6948 20.3334 24.0554 19.7924 24.0554 19.1251C24.0554 18.4577 23.6948 17.9167 23.2499 17.9167C22.805 17.9167 22.4443 18.4577 22.4443 19.1251C22.4443 19.7924 22.805 20.3334 23.2499 20.3334Z" fill="#F26F26"/>
</svg>
