<svg width="35" height="26" viewBox="0 0 35 26" fill="none" xmlns="http://www.w3.org/2000/svg">
<path d="M29.8012 14.7397C32.0235 14.7397 33.8255 12.9389 33.8255 10.7165C33.8255 8.49416 32.0235 6.69214 29.8012 6.69214C27.5794 6.69214 25.7773 8.49416 25.7773 10.7165C25.7774 12.9389 27.5794 14.7397 29.8012 14.7397Z" fill="#F26F26"/>
<path d="M34.9541 18.6175C34.7748 17.54 33.8842 16.032 33.21 15.3583C33.1212 15.2691 32.7243 15.2484 32.6171 15.3149C31.7975 15.819 30.8347 16.1156 29.8014 16.1156C28.7693 16.1156 27.8064 15.819 26.9867 15.3149C26.8791 15.2484 26.4827 15.2691 26.3939 15.3583C26.2054 15.5468 25.9998 15.7977 25.7993 16.0886C26.3417 17.1099 26.7719 18.1948 26.9272 19.129C27.0824 20.0655 27.032 20.9521 26.781 21.7604C27.6723 22.0828 28.7411 22.2244 29.8013 22.2244C32.5668 22.2244 35.3969 21.2655 34.9541 18.6175Z" fill="#F26F26"/>
<path d="M17.3969 13.0421C20.9986 13.0421 23.9186 10.1221 23.9186 6.52052C23.9186 2.92004 20.9986 0 17.3969 0C13.7959 0 10.877 2.92004 10.877 6.52052C10.877 10.1221 13.7958 13.0421 17.3969 13.0421Z" fill="#1F4392"/>
<path d="M22.9191 14.0409C22.7776 13.9001 22.1349 13.864 21.9602 13.9722C20.6307 14.7902 19.0706 15.269 17.3969 15.269C15.7244 15.269 14.1635 14.7902 12.8347 13.9722C12.66 13.864 12.0174 13.9001 11.8759 14.0409C10.7807 15.135 9.3373 17.5807 9.04691 19.3243C8.33092 23.619 12.9184 25.1696 17.3969 25.1696C21.8766 25.1696 26.464 23.619 25.748 19.3243C25.4576 17.5807 24.0142 15.135 22.9191 14.0409Z" fill="#1F4392"/>
<path d="M5.1987 14.7397C7.42051 14.7397 9.22246 12.9389 9.22246 10.7165C9.22246 8.49416 7.42051 6.69214 5.1987 6.69214C2.97627 6.69214 1.17432 8.49416 1.17432 10.7165C1.17432 12.9389 2.97627 14.7397 5.1987 14.7397Z" fill="#F26F26"/>
<path d="M7.86778 19.129C8.0328 18.1478 8.49839 16.9925 9.08211 15.9243C8.91942 15.7021 8.75679 15.5085 8.60667 15.3583C8.51787 15.2691 8.12153 15.2484 8.01386 15.3149C7.19416 15.819 6.23132 16.1156 5.19869 16.1156C4.16592 16.1156 3.20246 15.819 2.38345 15.3149C2.27626 15.2484 1.87882 15.2691 1.79002 15.3583C1.11415 16.032 0.225823 17.54 0.0459017 18.6175C-0.396246 21.2655 2.43328 22.2243 5.19869 22.2243C6.18559 22.2243 7.1822 22.1028 8.0328 21.8251C7.76476 21.0003 7.70802 20.093 7.86778 19.129Z" fill="#F26F26"/>
</svg>
